<svg width="30" height="40" viewBox="0 0 30 40" fill="none" xmlns="http://www.w3.org/2000/svg">
<path d="M30 9.52664V10H20V0H20.4734C20.9706 0 21.4476 0.197578 21.7992 0.549141L29.4509 8.20078C29.8025 8.55245 30 9.02936 30 9.52664ZM19.375 12.5C18.3438 12.5 17.5 11.6562 17.5 10.625V0H1.875C0.839453 0 0 0.839453 0 1.875V38.125C0 39.1605 0.839453 40 1.875 40H28.125C29.1605 40 30 39.1605 30 38.125V12.5H19.375ZM9.62547 31.2895C9.58758 31.3299 9.54209 31.3624 9.49162 31.3853C9.44114 31.4081 9.38666 31.4208 9.33129 31.4226C9.27591 31.4244 9.22073 31.4152 9.16888 31.3957C9.11704 31.3761 9.06956 31.3466 9.02914 31.3087L3.96148 26.5577C3.9194 26.5183 3.88585 26.4706 3.86291 26.4177C3.83998 26.3647 3.82815 26.3077 3.82815 26.25C3.82815 26.1923 3.83998 26.1352 3.86291 26.0823C3.88585 26.0293 3.9194 25.9816 3.96148 25.9422L9.02914 21.1912C9.06956 21.1534 9.11704 21.1238 9.16888 21.1042C9.22073 21.0847 9.27591 21.0756 9.33129 21.0774C9.38666 21.0791 9.44114 21.0918 9.49162 21.1146C9.54209 21.1375 9.58758 21.17 9.62547 21.2105L11.1551 22.8421C11.1937 22.8833 11.2237 22.9319 11.2432 22.985C11.2627 23.038 11.2714 23.0944 11.2687 23.1509C11.266 23.2073 11.252 23.2627 11.2274 23.3136C11.2029 23.3645 11.1684 23.41 11.126 23.4473L7.94141 26.25L11.126 29.0527C11.1684 29.09 11.2029 29.1355 11.2274 29.1864C11.252 29.2373 11.266 29.2927 11.2687 29.3491C11.2714 29.4056 11.2627 29.462 11.2432 29.515C11.2237 29.5681 11.1937 29.6167 11.1551 29.6579L9.62547 31.2895ZM13.6329 35.2331L11.4881 34.6105C11.3807 34.5792 11.29 34.5066 11.2361 34.4086C11.1822 34.3106 11.1694 34.1951 11.2005 34.0877L16.0005 17.5544C16.0318 17.4469 16.1044 17.3563 16.2024 17.3023C16.3005 17.2484 16.4159 17.2356 16.5234 17.2668L18.668 17.8895C18.7213 17.9049 18.7709 17.9307 18.8141 17.9653C18.8574 17.9999 18.8934 18.0428 18.9201 18.0913C18.9468 18.1399 18.9637 18.1932 18.9697 18.2483C18.9758 18.3033 18.971 18.3591 18.9555 18.4123L14.1555 34.9455C14.1401 34.9988 14.1144 35.0484 14.0798 35.0917C14.0452 35.1349 14.0024 35.1709 13.9538 35.1976C13.9053 35.2244 13.8519 35.2412 13.7969 35.2473C13.7418 35.2534 13.6861 35.2486 13.6329 35.2331ZM26.1948 26.5577L21.1271 31.3087C21.0867 31.3466 21.0392 31.3761 20.9874 31.3957C20.9355 31.4152 20.8803 31.4244 20.825 31.4226C20.7696 31.4208 20.7151 31.4081 20.6646 31.3853C20.6142 31.3624 20.5687 31.3299 20.5308 31.2895L19.0011 29.6578C18.9624 29.6166 18.9325 29.568 18.9129 29.515C18.8934 29.4619 18.8848 29.4055 18.8875 29.349C18.8902 29.2926 18.9042 29.2373 18.9287 29.1863C18.9532 29.1354 18.9877 29.0899 19.0302 29.0526L22.2148 26.25L19.0302 23.4473C18.9878 23.41 18.9533 23.3645 18.9288 23.3136C18.9043 23.2627 18.8903 23.2073 18.8876 23.1509C18.8848 23.0944 18.8935 23.038 18.913 22.985C18.9325 22.9319 18.9625 22.8833 19.0012 22.8421L20.5309 21.2105C20.5688 21.17 20.6142 21.1375 20.6647 21.1146C20.7152 21.0918 20.7697 21.0791 20.825 21.0774C20.8804 21.0756 20.9356 21.0847 20.9874 21.1042C21.0393 21.1238 21.0868 21.1534 21.1272 21.1912L26.1948 25.9422C26.2369 25.9817 26.2705 26.0293 26.2934 26.0823C26.3163 26.1352 26.3281 26.1923 26.3281 26.25C26.3281 26.3077 26.3163 26.3647 26.2934 26.4177C26.2704 26.4706 26.2369 26.5183 26.1948 26.5577Z" fill="white"/>
</svg>
