<svg width="21" height="20" viewBox="0 0 21 20" fill="none" xmlns="http://www.w3.org/2000/svg">
<path d="M16.75 -0.000854492H3.25L3.06558 0.00428557C1.35645 0.0998956 0 1.51612 0 3.24915V12.7491L0.00514007 12.9335C0.10075 14.6426 1.51697 15.9991 3.25 15.9991H9.717C9.9006 15.5772 10.1624 15.1918 10.4903 14.8639L10.855 14.4991H3.25L3.10647 14.4933C2.20711 14.4203 1.5 13.6673 1.5 12.7491V5.37315L9.6507 9.66285L9.7468 9.70515C9.9431 9.77555 10.1619 9.76145 10.3493 9.66285L18.5 5.37215V8.00625C19.0085 7.97295 19.5233 8.05735 20 8.25945V3.24915L19.9949 3.06473C19.8992 1.3556 18.483 -0.000854492 16.75 -0.000854492ZM3.25 1.49915H16.75L16.8935 1.50495C17.7929 1.57796 18.5 2.33098 18.5 3.24915V3.67715L10 8.15165L1.5 3.67815V3.24915L1.5058 3.10562C1.57881 2.20626 2.33183 1.49915 3.25 1.49915ZM17.0999 9.66865L11.1974 15.571C10.8533 15.9151 10.6092 16.3463 10.4911 16.8185L10.0334 18.6492C9.8344 19.4453 10.5556 20.1665 11.3517 19.9674L13.1824 19.5097C13.6545 19.3917 14.0857 19.1476 14.4299 18.8034L20.3323 12.901C21.2249 12.0084 21.2249 10.5612 20.3323 9.66865C19.4397 8.77595 17.9925 8.77595 17.0999 9.66865Z" fill="white"/>
</svg>
