<svg width="210" height="32" viewBox="0 0 210 32" fill="none" xmlns="http://www.w3.org/2000/svg">
<rect width="32" height="32" rx="16" fill="#FF595A"/>
<path d="M23.1165 7.54545V25H19.929L12.3352 14.0142H12.2074V25H8.51705V7.54545H11.7557L19.2898 18.5227H19.4432V7.54545H23.1165Z" fill="white"/>
<path d="M41.7969 17.0696V14.5696L51.7969 10.1662V13.0426L44.9503 15.7912L45.0426 15.642V15.9972L44.9503 15.848L51.7969 18.5966V21.473L41.7969 17.0696ZM67.0241 8.45455V23H64.3679L58.0398 13.8452H57.9332V23H54.858V8.45455H57.5568L63.8352 17.6023H63.9631V8.45455H67.0241ZM69.5082 23V12.0909H72.5337V23H69.5082ZM71.0281 10.6847C70.5782 10.6847 70.1924 10.5355 69.8704 10.2372C69.5531 9.93419 69.3945 9.57197 69.3945 9.15057C69.3945 8.7339 69.5531 8.37642 69.8704 8.07812C70.1924 7.77509 70.5782 7.62358 71.0281 7.62358C71.4779 7.62358 71.8614 7.77509 72.1786 8.07812C72.5006 8.37642 72.6616 8.7339 72.6616 9.15057C72.6616 9.57197 72.5006 9.93419 72.1786 10.2372C71.8614 10.5355 71.4779 10.6847 71.0281 10.6847ZM77.983 8.45455V23H74.9574V8.45455H77.983ZM85.3782 23.2131C84.256 23.2131 83.2901 22.9858 82.4805 22.5312C81.6755 22.072 81.0553 21.4233 80.6197 20.5852C80.1841 19.7424 79.9663 18.7457 79.9663 17.5952C79.9663 16.473 80.1841 15.4882 80.6197 14.6406C81.0553 13.7931 81.6684 13.1326 82.4592 12.6591C83.2546 12.1856 84.1874 11.9489 85.2575 11.9489C85.9772 11.9489 86.6471 12.0649 87.2674 12.2969C87.8924 12.5241 88.4369 12.8674 88.9009 13.3267C89.3697 13.786 89.7343 14.3636 89.9947 15.0597C90.2551 15.7509 90.3853 16.5606 90.3853 17.4886V18.3196H81.1737V16.4446H87.5373C87.5373 16.009 87.4426 15.6231 87.2532 15.2869C87.0638 14.9508 86.801 14.688 86.4648 14.4986C86.1334 14.3045 85.7475 14.2074 85.3072 14.2074C84.8479 14.2074 84.4407 14.3139 84.0856 14.527C83.7352 14.7353 83.4606 15.017 83.2617 15.3722C83.0629 15.7225 82.9611 16.1132 82.9563 16.544V18.3267C82.9563 18.8665 83.0558 19.3329 83.2546 19.7259C83.4582 20.1188 83.7447 20.4219 84.114 20.6349C84.4833 20.848 84.9213 20.9545 85.4279 20.9545C85.7641 20.9545 86.0719 20.9072 86.3512 20.8125C86.6306 20.7178 86.8697 20.5758 87.0685 20.3864C87.2674 20.197 87.4189 19.965 87.5231 19.6903L90.3214 19.875C90.1793 20.5473 89.8881 21.1345 89.4478 21.6364C89.0122 22.1335 88.4487 22.5218 87.7575 22.8011C87.0709 23.0758 86.2778 23.2131 85.3782 23.2131ZM101.436 15.2017L98.6665 15.3722C98.6192 15.1354 98.5174 14.9223 98.3612 14.733C98.2049 14.5388 97.9989 14.3849 97.7433 14.2713C97.4923 14.1529 97.1916 14.0938 96.8413 14.0938C96.3725 14.0938 95.9772 14.1932 95.6552 14.392C95.3332 14.5862 95.1722 14.8466 95.1722 15.1733C95.1722 15.4337 95.2764 15.6539 95.4847 15.8338C95.6931 16.0137 96.0505 16.1581 96.5572 16.267L98.5316 16.6648C99.5922 16.8826 100.383 17.233 100.904 17.7159C101.425 18.1989 101.685 18.8333 101.685 19.6193C101.685 20.3343 101.474 20.9616 101.053 21.5014C100.636 22.0412 100.063 22.4626 99.3342 22.7656C98.6097 23.0639 97.774 23.2131 96.8271 23.2131C95.3829 23.2131 94.2324 22.9124 93.3754 22.3111C92.5231 21.705 92.0236 20.8812 91.8768 19.8395L94.8526 19.6832C94.9426 20.1236 95.1604 20.4598 95.506 20.6918C95.8517 20.919 96.2944 21.0327 96.8342 21.0327C97.3645 21.0327 97.7906 20.9309 98.1126 20.7273C98.4393 20.5189 98.605 20.2514 98.6097 19.9247C98.605 19.6501 98.489 19.4252 98.2617 19.25C98.0344 19.0701 97.6841 18.9328 97.2106 18.8381L95.3214 18.4616C94.256 18.2486 93.4629 17.8793 92.9421 17.3537C92.426 16.8281 92.168 16.1581 92.168 15.3438C92.168 14.643 92.3574 14.0393 92.7362 13.5327C93.1197 13.026 93.6571 12.6354 94.3484 12.3608C95.0444 12.0862 95.8588 11.9489 96.7915 11.9489C98.1694 11.9489 99.2537 12.2401 100.044 12.8224C100.84 13.4048 101.304 14.1979 101.436 15.2017ZM106.616 16.6932V23H103.59V8.45455H106.531V14.0156H106.658C106.905 13.3717 107.302 12.8674 107.852 12.5028C108.401 12.1335 109.09 11.9489 109.918 11.9489C110.676 11.9489 111.336 12.1146 111.9 12.446C112.468 12.7727 112.908 13.2438 113.221 13.8594C113.538 14.4702 113.694 15.2017 113.69 16.054V23H110.664V16.5938C110.669 15.9214 110.498 15.3982 110.153 15.0241C109.812 14.6501 109.334 14.4631 108.718 14.4631C108.306 14.4631 107.942 14.5507 107.624 14.7259C107.312 14.901 107.066 15.1567 106.886 15.4929C106.71 15.8243 106.621 16.2244 106.616 16.6932Z" fill="white"/>
<path d="M126.58 8.45455H129.62V18.5966C129.62 19.5341 129.409 20.3485 128.988 21.0398C128.571 21.7311 127.991 22.2637 127.248 22.6378C126.504 23.0118 125.64 23.1989 124.656 23.1989C123.78 23.1989 122.984 23.045 122.269 22.7372C121.559 22.4247 120.996 21.9512 120.579 21.3168C120.162 20.6776 119.956 19.875 119.961 18.9091H123.022C123.031 19.2926 123.11 19.6217 123.256 19.8963C123.408 20.1662 123.614 20.3745 123.874 20.5213C124.139 20.6634 124.452 20.7344 124.812 20.7344C125.191 20.7344 125.51 20.6539 125.771 20.4929C126.036 20.3272 126.237 20.0857 126.374 19.7685C126.512 19.4512 126.58 19.0606 126.58 18.5966V8.45455ZM135.217 23.206C134.521 23.206 133.9 23.0852 133.356 22.8438C132.811 22.5975 132.38 22.2353 132.063 21.7571C131.751 21.2741 131.594 20.6728 131.594 19.9531C131.594 19.3471 131.706 18.8381 131.928 18.4261C132.151 18.0142 132.454 17.6828 132.837 17.4318C133.221 17.1809 133.656 16.9915 134.144 16.8636C134.637 16.7358 135.153 16.6458 135.692 16.5938C136.327 16.5275 136.838 16.4659 137.227 16.4091C137.615 16.3475 137.897 16.2576 138.072 16.1392C138.247 16.0208 138.335 15.8456 138.335 15.6136V15.571C138.335 15.1212 138.192 14.7732 137.908 14.527C137.629 14.2808 137.231 14.1577 136.715 14.1577C136.171 14.1577 135.737 14.2784 135.415 14.5199C135.094 14.7566 134.88 15.0549 134.776 15.4148L131.978 15.1875C132.12 14.5246 132.399 13.9517 132.816 13.4688C133.233 12.9811 133.77 12.607 134.428 12.3466C135.091 12.0814 135.858 11.9489 136.729 11.9489C137.335 11.9489 137.915 12.0199 138.469 12.1619C139.028 12.304 139.523 12.5241 139.954 12.8224C140.389 13.1207 140.733 13.5043 140.984 13.973C141.235 14.437 141.36 14.9934 141.36 15.642V23H138.491V21.4872H138.406C138.23 21.8281 137.996 22.1288 137.702 22.3892C137.409 22.6449 137.056 22.8461 136.644 22.9929C136.232 23.1349 135.756 23.206 135.217 23.206ZM136.083 21.1179C136.528 21.1179 136.921 21.0303 137.262 20.8551C137.603 20.6752 137.871 20.4337 138.065 20.1307C138.259 19.8277 138.356 19.4844 138.356 19.1009V17.9432C138.261 18.0047 138.131 18.0616 137.965 18.1136C137.804 18.161 137.622 18.206 137.418 18.2486C137.215 18.2865 137.011 18.322 136.808 18.3551C136.604 18.3835 136.419 18.4096 136.254 18.4332C135.898 18.4853 135.588 18.5682 135.323 18.6818C135.058 18.7955 134.852 18.9493 134.705 19.1435C134.558 19.3329 134.485 19.5696 134.485 19.8537C134.485 20.2656 134.634 20.5805 134.933 20.7983C135.236 21.0114 135.619 21.1179 136.083 21.1179ZM152.784 15.2017L150.014 15.3722C149.967 15.1354 149.865 14.9223 149.709 14.733C149.553 14.5388 149.347 14.3849 149.091 14.2713C148.84 14.1529 148.539 14.0938 148.189 14.0938C147.72 14.0938 147.325 14.1932 147.003 14.392C146.681 14.5862 146.52 14.8466 146.52 15.1733C146.52 15.4337 146.624 15.6539 146.832 15.8338C147.041 16.0137 147.398 16.1581 147.905 16.267L149.879 16.6648C150.94 16.8826 151.731 17.233 152.251 17.7159C152.772 18.1989 153.033 18.8333 153.033 19.6193C153.033 20.3343 152.822 20.9616 152.401 21.5014C151.984 22.0412 151.411 22.4626 150.682 22.7656C149.957 23.0639 149.122 23.2131 148.175 23.2131C146.731 23.2131 145.58 22.9124 144.723 22.3111C143.871 21.705 143.371 20.8812 143.224 19.8395L146.2 19.6832C146.29 20.1236 146.508 20.4598 146.854 20.6918C147.199 20.919 147.642 21.0327 148.182 21.0327C148.712 21.0327 149.138 20.9309 149.46 20.7273C149.787 20.5189 149.953 20.2514 149.957 19.9247C149.953 19.6501 149.837 19.4252 149.609 19.25C149.382 19.0701 149.032 18.9328 148.558 18.8381L146.669 18.4616C145.604 18.2486 144.811 17.8793 144.29 17.3537C143.774 16.8281 143.516 16.1581 143.516 15.3438C143.516 14.643 143.705 14.0393 144.084 13.5327C144.467 13.026 145.005 12.6354 145.696 12.3608C146.392 12.0862 147.206 11.9489 148.139 11.9489C149.517 11.9489 150.601 12.2401 151.392 12.8224C152.188 13.4048 152.652 14.1979 152.784 15.2017ZM157.09 23L154.121 12.0909H157.182L158.873 19.4205H158.972L160.733 12.0909H163.738L165.527 19.3778H165.62L167.282 12.0909H170.336L167.374 23H164.171L162.296 16.1392H162.161L160.286 23H157.09ZM175.06 23.206C174.364 23.206 173.744 23.0852 173.2 22.8438C172.655 22.5975 172.224 22.2353 171.907 21.7571C171.594 21.2741 171.438 20.6728 171.438 19.9531C171.438 19.3471 171.549 18.8381 171.772 18.4261C171.995 18.0142 172.298 17.6828 172.681 17.4318C173.065 17.1809 173.5 16.9915 173.988 16.8636C174.48 16.7358 174.996 16.6458 175.536 16.5938C176.171 16.5275 176.682 16.4659 177.07 16.4091C177.459 16.3475 177.74 16.2576 177.915 16.1392C178.091 16.0208 178.178 15.8456 178.178 15.6136V15.571C178.178 15.1212 178.036 14.7732 177.752 14.527C177.473 14.2808 177.075 14.1577 176.559 14.1577C176.014 14.1577 175.581 14.2784 175.259 14.5199C174.937 14.7566 174.724 15.0549 174.62 15.4148L171.822 15.1875C171.964 14.5246 172.243 13.9517 172.66 13.4688C173.076 12.9811 173.614 12.607 174.272 12.3466C174.935 12.0814 175.702 11.9489 176.573 11.9489C177.179 11.9489 177.759 12.0199 178.313 12.1619C178.872 12.304 179.367 12.5241 179.798 12.8224C180.233 13.1207 180.576 13.5043 180.827 13.973C181.078 14.437 181.204 14.9934 181.204 15.642V23H178.335V21.4872H178.249C178.074 21.8281 177.84 22.1288 177.546 22.3892C177.253 22.6449 176.9 22.8461 176.488 22.9929C176.076 23.1349 175.6 23.206 175.06 23.206ZM175.927 21.1179C176.372 21.1179 176.765 21.0303 177.106 20.8551C177.447 20.6752 177.714 20.4337 177.908 20.1307C178.103 19.8277 178.2 19.4844 178.2 19.1009V17.9432C178.105 18.0047 177.975 18.0616 177.809 18.1136C177.648 18.161 177.466 18.206 177.262 18.2486C177.058 18.2865 176.855 18.322 176.651 18.3551C176.448 18.3835 176.263 18.4096 176.097 18.4332C175.742 18.4853 175.432 18.5682 175.167 18.6818C174.902 18.7955 174.696 18.9493 174.549 19.1435C174.402 19.3329 174.329 19.5696 174.329 19.8537C174.329 20.2656 174.478 20.5805 174.776 20.7983C175.079 21.0114 175.463 21.1179 175.927 21.1179ZM186.577 8.45455V23H183.551V8.45455H186.577ZM195.336 7.77273L190.648 25.1875H188.042L192.729 7.77273H195.336ZM207.383 18.4332L197.383 22.8366V19.9602L204.229 17.2116L204.137 17.3608V17.0057L204.229 17.1548L197.383 14.4062V11.5298L207.383 15.9332V18.4332Z" fill="#FF595A"/>
</svg>
