<svg width="26" height="40" viewBox="0 0 26 40" fill="none" xmlns="http://www.w3.org/2000/svg">
<path d="M21.75 0H4.25C2.17969 0 0.5 1.67969 0.5 3.75V36.25C0.5 38.3203 2.17969 40 4.25 40H21.75C23.8203 40 25.5 38.3203 25.5 36.25V3.75C25.5 1.67969 23.8203 0 21.75 0ZM13 37.5C11.6172 37.5 10.5 36.3828 10.5 35C10.5 33.6172 11.6172 32.5 13 32.5C14.3828 32.5 15.5 33.6172 15.5 35C15.5 36.3828 14.3828 37.5 13 37.5ZM21.75 29.0625C21.75 29.5781 21.3281 30 20.8125 30H5.1875C4.67188 30 4.25 29.5781 4.25 29.0625V4.6875C4.25 4.17188 4.67188 3.75 5.1875 3.75H20.8125C21.3281 3.75 21.75 4.17188 21.75 4.6875V29.0625Z" fill="white"/>
</svg>
